<?xml version="1.0" encoding="UTF-8"?>
<svg data-bbox="20 19 659 981" xmlns="http://www.w3.org/2000/svg" viewBox="0 0 768 1024" fill-rule="evenodd" clip-rule="evenodd" stroke-linecap="round" stroke-linejoin="round" stroke-miterlimit="1.5" data-type="ugc">
    <g>
        <path d="M679 88.322c0-18.385-6.798-36.018-18.898-49.018C648.001 26.304 631.59 19 614.477 19H84.523c-17.113 0-33.524 7.304-45.625 20.304C26.798 52.304 20 69.937 20 88.322v823.356c0 18.385 6.798 36.018 18.898 49.018C50.999 973.696 67.41 981 84.523 981h529.954c17.113 0 33.524-7.304 45.625-20.304 12.1-13 18.898-30.633 18.898-49.018V88.322zm-37.422 57.227c0-47.686-35.982-86.343-80.366-86.343H136.876c-44.385 0-80.366 38.657-80.366 86.343v709.882c0 47.686 35.981 86.344 80.366 86.344h424.336c44.384 0 80.366-38.658 80.366-86.344V145.549z"/>
        <path d="M499.5 943c0-10.486-8.514-19-19-19H220c-10.486 0-19 8.514-19 19v38c0 10.486 8.514 19 19 19h260.5c10.486 0 19-8.514 19-19v-38z" stroke="#ffffff" stroke-width="10"/>
    </g>
</svg>
